<mxfile host="app.diagrams.net" agent="Mozilla/5.0 (Windows NT 10.0; Win64; x64) AppleWebKit/537.36 (KHTML, like Gecko) Chrome/128.0.0.0 Safari/537.36" version="24.7.10">
  <diagram name="Page-1" id="OR98GDj2vl4Da3aiFOTY">
    <mxGraphModel dx="1156" dy="909" grid="1" gridSize="10" guides="1" tooltips="1" connect="1" arrows="1" fold="1" page="1" pageScale="1" pageWidth="850" pageHeight="1100" math="0" shadow="0">
      <root>
        <mxCell id="0" />
        <mxCell id="1" parent="0" />
        <mxCell id="pHEeYOV9mGRia7q9dUdx-8" style="edgeStyle=orthogonalEdgeStyle;rounded=0;orthogonalLoop=1;jettySize=auto;html=1;exitX=1;exitY=0.5;exitDx=0;exitDy=0;" edge="1" parent="1" source="pHEeYOV9mGRia7q9dUdx-11" target="pHEeYOV9mGRia7q9dUdx-2">
          <mxGeometry relative="1" as="geometry">
            <mxPoint x="144.9999999999999" y="119.9655172413793" as="sourcePoint" />
          </mxGeometry>
        </mxCell>
        <mxCell id="pHEeYOV9mGRia7q9dUdx-1" value="Milk Sample" style="whiteSpace=wrap;html=1;aspect=fixed;" vertex="1" parent="1">
          <mxGeometry x="25" y="80" width="80" height="80" as="geometry" />
        </mxCell>
        <mxCell id="pHEeYOV9mGRia7q9dUdx-9" style="edgeStyle=orthogonalEdgeStyle;rounded=0;orthogonalLoop=1;jettySize=auto;html=1;entryX=0;entryY=0.5;entryDx=0;entryDy=0;" edge="1" parent="1" source="pHEeYOV9mGRia7q9dUdx-2" target="pHEeYOV9mGRia7q9dUdx-3">
          <mxGeometry relative="1" as="geometry" />
        </mxCell>
        <mxCell id="pHEeYOV9mGRia7q9dUdx-2" value="Spectral Data" style="whiteSpace=wrap;html=1;aspect=fixed;" vertex="1" parent="1">
          <mxGeometry x="265" y="80" width="80" height="80" as="geometry" />
        </mxCell>
        <mxCell id="pHEeYOV9mGRia7q9dUdx-10" style="edgeStyle=orthogonalEdgeStyle;rounded=0;orthogonalLoop=1;jettySize=auto;html=1;" edge="1" parent="1" source="pHEeYOV9mGRia7q9dUdx-14" target="pHEeYOV9mGRia7q9dUdx-6">
          <mxGeometry relative="1" as="geometry" />
        </mxCell>
        <mxCell id="pHEeYOV9mGRia7q9dUdx-3" value="AI Model" style="ellipse;whiteSpace=wrap;html=1;aspect=fixed;" vertex="1" parent="1">
          <mxGeometry x="505" y="80" width="80" height="80" as="geometry" />
        </mxCell>
        <mxCell id="pHEeYOV9mGRia7q9dUdx-6" value="Results" style="whiteSpace=wrap;html=1;aspect=fixed;" vertex="1" parent="1">
          <mxGeometry x="745" y="80" width="80" height="80" as="geometry" />
        </mxCell>
        <mxCell id="pHEeYOV9mGRia7q9dUdx-12" value="" style="edgeStyle=orthogonalEdgeStyle;rounded=0;orthogonalLoop=1;jettySize=auto;html=1;exitX=1;exitY=0.5;exitDx=0;exitDy=0;" edge="1" parent="1" source="pHEeYOV9mGRia7q9dUdx-1" target="pHEeYOV9mGRia7q9dUdx-11">
          <mxGeometry relative="1" as="geometry">
            <mxPoint x="105" y="120" as="sourcePoint" />
            <mxPoint x="265" y="120" as="targetPoint" />
          </mxGeometry>
        </mxCell>
        <mxCell id="pHEeYOV9mGRia7q9dUdx-11" value="Spectrophotometer" style="rounded=0;whiteSpace=wrap;html=1;" vertex="1" parent="1">
          <mxGeometry x="125" y="105" width="120" height="30" as="geometry" />
        </mxCell>
        <mxCell id="pHEeYOV9mGRia7q9dUdx-13" value="Preprocessing" style="rounded=0;whiteSpace=wrap;html=1;" vertex="1" parent="1">
          <mxGeometry x="365" y="105" width="120" height="30" as="geometry" />
        </mxCell>
        <mxCell id="pHEeYOV9mGRia7q9dUdx-15" value="" style="edgeStyle=orthogonalEdgeStyle;rounded=0;orthogonalLoop=1;jettySize=auto;html=1;" edge="1" parent="1" source="pHEeYOV9mGRia7q9dUdx-3" target="pHEeYOV9mGRia7q9dUdx-14">
          <mxGeometry relative="1" as="geometry">
            <mxPoint x="585" y="120" as="sourcePoint" />
            <mxPoint x="755" y="120" as="targetPoint" />
          </mxGeometry>
        </mxCell>
        <mxCell id="pHEeYOV9mGRia7q9dUdx-14" value="Real Time Analysis" style="rounded=0;whiteSpace=wrap;html=1;" vertex="1" parent="1">
          <mxGeometry x="605" y="105" width="120" height="30" as="geometry" />
        </mxCell>
      </root>
    </mxGraphModel>
  </diagram>
</mxfile>
